<svg width="42" height="42" viewBox="0 0 42 42" fill="none" xmlns="http://www.w3.org/2000/svg">
    <path fillRule="evenodd" clipRule="evenodd"
        d="M10.4219 14.8099C10.4219 12.7436 12.7482 10.4268 14.8228 10.4268H26.9252C28.9998 10.4268 31.3261 12.7436 31.3261 14.8099V26.8635C31.3261 28.9297 28.9998 31.2466 26.9252 31.2466C25.9953 31.2466 15.6228 31.2843 14.8225 31.2843C12.7482 31.2843 10.4219 28.9297 10.4219 26.8635V14.8099ZM19.2237 13.3488C18.3214 13.3488 13.3558 18.2919 13.3558 19.193C13.3558 20.2888 13.3558 21.3846 13.3558 22.4804C13.3558 23.3807 18.3214 28.3245 19.2237 28.3245C20.3239 28.3245 21.4241 28.3245 22.5243 28.3245C23.4269 28.3245 28.3921 23.3807 28.3921 22.4804C28.3921 21.3846 28.3921 20.2888 28.3921 19.193C28.3921 18.2919 23.4269 13.3488 22.5243 13.3488C21.4241 13.3488 20.3239 13.3488 19.2237 13.3488Z"
        fill="#FF4C00" />
</svg>
    